<?xml version="1.0" standalone="no"?><!DOCTYPE svg PUBLIC "-//W3C//DTD SVG 1.1//EN" "http://www.w3.org/Graphics/SVG/1.1/DTD/svg11.dtd"><svg t="1729060833722" class="icon" viewBox="0 0 1025 1024" version="1.1" xmlns="http://www.w3.org/2000/svg" p-id="4270" xmlns:xlink="http://www.w3.org/1999/xlink" width="200.1953125" height="200"><path d="M71.9984 608.4992000000001H32.40319999999997v345.1056H32V992h385.2v-38.3952H71.9984zM992.7968000000001 607.856h-39.5952v345.1056H608v38.3952h385.2v-38.3952h-0.4032zM32 70.72640000000001h0.4032v345.11039999999997h39.5952V70.72640000000001H417.2V32.33119999999997H32zM608 32.9744v38.3952h345.2016V416.48h39.5952V71.36959999999999h0.4032V32.9744z" p-id="4271"></path><path d="M723.2 110.00479999999999h192v38.0016h-192zM761.6 186.40160000000003h153.6v38.0016h-153.6zM761.6 263.6048h153.6v38.0016h-153.6zM110 109.60159999999996h192v38.0016h-192zM110 186.0032h76.5024v38.0016H110zM110 263.2016h114.6v38.0016H110zM800.6 723.2048h114v38.0016h-114zM837.8 799.6064h76.8v37.9968h-76.8zM800.6 876.8048000000001h114v38.0016h-114zM109.39999999999998 722.8063999999999h115.19999999999999v37.9968h-115.19999999999999zM109.39999999999998 799.2032h76.5024v37.9968H109.39999999999998zM109.39999999999998 876.4064H224v37.9968H109.39999999999998z" p-id="4272"></path></svg>