<svg t="1712931995618" class="icon" viewBox="0 0 1024 1024" version="1.1" xmlns="http://www.w3.org/2000/svg" p-id="3058" id="mx_n_1712931995618" width="200" height="200"><path d="M370.14 453.8a43.79 19.91 0 1 0 87.58 0 43.79 19.91 0 1 0-87.58 0Z" p-id="3059"></path><path d="M569.21 453.72a43.79 19.91 0 1 0 87.58 0 43.79 19.91 0 1 0-87.58 0Z" p-id="3060"></path><path d="M521.4 625.29l33.35-42.84a14.36 14.36 0 0 0-11.35-23.19h-66.72a14.37 14.37 0 0 0-11.33 23.21l33.38 42.81a14.37 14.37 0 0 0 22.67 0.01zM338.2 590.54a11.91 11.91 0 0 1-2.57-0.29l-237.7-54.12a11.55 11.55 0 0 1 5.13-22.52l237.69 54.12a11.55 11.55 0 0 1-2.55 22.81zM97.49 643.15a11.55 11.55 0 0 1 0-23.09l243.78-0.1a11.55 11.55 0 1 1 0 23.09l-243.78 0.1zM101.27 752.78A11.55 11.55 0 0 1 98.44 730l236.25-60.1a11.55 11.55 0 0 1 5.69 22.38l-236.25 60.1a11.74 11.74 0 0 1-2.86 0.4zM685.76 584.63a11.55 11.55 0 0 1-2.57-22.81l237.65-54.31A11.55 11.55 0 1 1 926 530l-237.66 54.33a11.49 11.49 0 0 1-2.58 0.3zM682.74 637.14a11.55 11.55 0 1 1 0-23.09l243.78-0.1a11.55 11.55 0 0 1 0 23.1l-243.78 0.09zM922.81 746.68a11.58 11.58 0 0 1-2.84-0.36l-236.3-59.91a11.55 11.55 0 1 1 5.67-22.41l236.3 59.91a11.55 11.55 0 0 1-2.83 22.75zM197.64 520h-0.52a17.33 17.33 0 0 1-16.81-17.82 327.23 327.23 0 0 1 30.76-129.74c0.15-0.3 0.3-0.61 0.46-0.91l16-29.52A17.32 17.32 0 0 1 258 358.49l-15.75 29.07a292.58 292.58 0 0 0-27.3 115.61A17.32 17.32 0 0 1 197.64 520zM510 841.85c-51.32 0-98.24-8-139.48-23.84-39.52-15.15-73.92-37.46-102.2-66.29a17.32 17.32 0 1 1 24.73-24.25c24.77 25.25 55 44.84 89.83 58.2 37.27 14.29 80 21.54 127.08 21.54h0.18c49.41 0 94-8 132.58-23.76 35.93-14.67 66.71-36.09 91.49-63.67A17.32 17.32 0 1 1 760 742.93c-58.11 64.67-144.5 98.88-249.83 98.92z" p-id="3061"></path><path d="M822.14 513.54a17.32 17.32 0 0 1-17.28-16.46 294.36 294.36 0 0 0-16-82.25 107.41 107.41 0 0 1 7-86.44l47.39-87.23a10.46 10.46 0 0 0-9.37-14.63l-176.26 37.93-0.86 0.16a94.31 94.31 0 0 1-56.5-8.19c-9.07-4.38-18.23-9.66-27.09-14.77-21.17-12.23-43.17-24.87-63.25-24.87-20.4 0-42.6 12.81-64.06 25.2-8.84 5.1-18 10.37-27 14.76a94.25 94.25 0 0 1-56.92 8.25c-0.29-0.05-0.57-0.1-0.86-0.17l-174.73-38a10.46 10.46 0 0 0-9.18 15l31.58 66.41A17.32 17.32 0 0 1 177.46 323l-31.57-66.39a45.1 45.1 0 0 1 43.85-64.39 17.23 17.23 0 0 1 2.48 0.36L368 230.89a59.82 59.82 0 0 0 35.68-5.3c7.93-3.85 16.15-8.59 24.85-13.61 24.23-14 51.69-29.82 81.36-29.83 29.38 0 56.56 15.67 80.55 29.5 8.7 5 16.93 9.76 24.87 13.59a59.8 59.8 0 0 0 35.44 5.25L828 192.35a16.58 16.58 0 0 1 2.42-0.34 45.09 45.09 0 0 1 43.9 64.36c-0.13 0.28-0.27 0.56-0.42 0.83l-47.66 87.73a72.69 72.69 0 0 0-4.69 58.51 329 329 0 0 1 17.87 91.92A17.32 17.32 0 0 1 823 513.52c-0.27 0.02-0.57 0.02-0.86 0.02z" p-id="3062"></path></svg>