<svg t="1712929559451" class="icon" viewBox="0 0 1024 1024" version="1.1" xmlns="http://www.w3.org/2000/svg" p-id="1511" width="200" height="200"><path d="M510.55 802.85c-41 0-83-10.37-121.41-30-37.2-19-71.38-46.73-98.84-80.25h-0.07c-13.51 20.76-29.56 25.13-40.66 25.13a145 145 0 0 1-145-145v-214A137.54 137.54 0 0 1 242.06 221.2h122.75a17.15 17.15 0 0 1 0 34.3H242.06a103.25 103.25 0 0 0-103.24 103.26v214a110.71 110.71 0 0 0 110.73 110.68c4.76 0 9.14-5.24 12-9.63a33.72 33.72 0 0 1 26.69-15.49 34.53 34.53 0 0 1 28.6 12.57c24.49 29.89 54.88 54.59 87.9 71.43 34.11 17.41 69.71 26.23 105.82 26.23 65 0 130.57-29.92 180-82.07a288.64 288.64 0 0 0 79.59-199.24c0-45.3-12.93-91.51-37.39-133.64a322.79 322.79 0 0 0-91.18-99.85 17.15 17.15 0 0 1 19.92-27.92 357.67 357.67 0 0 1 100.91 110.55c27.48 47.35 42 99.52 42 150.86a321 321 0 0 1-24.25 122.69 324.36 324.36 0 0 1-64.74 100.14c-55.83 58.93-130.5 92.77-204.85 92.78z" p-id="1512"></path><path d="M249.78 601.83a17.15 17.15 0 0 1-16.25-11.67 321.82 321.82 0 0 1-16.87-102.87c0-51.34 14.52-103.51 42-150.86a357.58 357.58 0 0 1 100.91-110.58 17.15 17.15 0 0 1 19.93 27.92 322.82 322.82 0 0 0-91.17 99.87C263.88 395.77 251 442 251 487.29a287.53 287.53 0 0 0 15 91.92 17.16 17.16 0 0 1-16.25 22.62zM774.48 717.7a17.15 17.15 0 1 1 0-34.3 110.85 110.85 0 0 0 110.7-110.73v-214A103.37 103.37 0 0 0 781.9 255.45H657.06a17.15 17.15 0 0 1 0-34.3H781.9c75.84 0 137.56 61.7 137.56 137.54v214a145 145 0 0 1-145 145z" p-id="1513"></path><path d="M403.77 393.76m-35.84 0a35.84 35.84 0 1 0 71.68 0 35.84 35.84 0 1 0-71.68 0Z" p-id="1514"></path><path d="M587.33 393.74m-35.84 0a35.84 35.84 0 1 0 71.68 0 35.84 35.84 0 1 0-71.68 0Z" p-id="1515"></path><path d="M509 538.39m-52.03 0a52.03 52.03 0 1 0 104.06 0 52.03 52.03 0 1 0-104.06 0Z" p-id="1516"></path><path d="M467.15 662.18c-57.17 0-87.17-23.46-88.42-24.46A11.43 11.43 0 0 1 393 619.86c0.2 0.15 25.55 19.45 74.14 19.45 7.23 0 12.67-2.45 17.13-7.71 8.53-10.08 13.21-30.58 13.16-57.74a282.22 282.22 0 0 0-3.12-40.69 11.44 11.44 0 1 1 22.56-3.76 302.29 302.29 0 0 1 3.42 44.41c0.06 33.52-6.19 57.93-18.57 72.55-8.72 10.34-20.72 15.81-34.55 15.81z" p-id="1517"></path><path d="M550.86 662.17c-13.87 0-25.82-5.46-34.58-15.8-12.39-14.62-18.65-39-18.59-72.55a302.29 302.29 0 0 1 3.42-44.41 11.43 11.43 0 0 1 22.55 3.75 285.33 285.33 0 0 0-3.11 41c0 27 4.68 47.39 13.18 57.42 4.46 5.26 9.9 7.71 17.12 7.71 48.61 0 74-19.32 74.21-19.52a11.44 11.44 0 0 1 14.23 17.91c-1.29 1.02-31.29 24.49-88.43 24.49z" p-id="1518"></path></svg>