<svg t="1713887806400" class="icon" viewBox="0 0 1024 1024" version="1.1" xmlns="http://www.w3.org/2000/svg" p-id="2088" width="200" height="200"><path d="M956.992 253.216a90.016 90.016 0 0 0-66.016-27.936H507.808l-96.32-96.32H124.96a90.624 90.624 0 0 0-66.016 27.936 92.8 92.8 0 0 0-27.936 68.416v573.376a93.728 93.728 0 0 0 27.936 68.384 90.016 90.016 0 0 0 66.016 27.936h765.984a90.624 90.624 0 0 0 66.016-27.936 92.8 92.8 0 0 0 27.936-68.384V321.6a93.28 93.28 0 0 0-27.904-68.384zM540.448 778.848l-183.488-183.456h107.008a401.92 401.92 0 0 0-32.608-169.888 301.088 301.088 0 0 0-101.536-119.264 393.824 393.824 0 0 1 184.512 84.832 324.544 324.544 0 0 1 104.64 204.352h104.64z" p-id="2089"></path></svg>