<svg t="1713082836002" class="icon" viewBox="0 0 1026 1024" version="1.1" xmlns="http://www.w3.org/2000/svg" p-id="2378" width="200" height="200"><path d="M335.872 471.04H112.64c-61.44 0-112.64-49.152-112.64-112.64V135.168c0-61.44 49.152-112.64 112.64-112.64h223.232c61.44 0 112.64 49.152 112.64 112.64v223.232c0 61.44-51.2 112.64-112.64 112.64zM112.64 98.304c-20.48 0-36.864 16.384-36.864 36.864v223.232c0 20.48 16.384 36.864 36.864 36.864h223.232c20.48 0 36.864-16.384 36.864-36.864V135.168c0-20.48-16.384-36.864-36.864-36.864H112.64z m223.232 892.928H112.64c-61.44 0-112.64-49.152-112.64-112.64V657.408c0-61.44 49.152-112.64 112.64-112.64h223.232c61.44 0 112.64 49.152 112.64 112.64V880.64c0 61.44-51.2 110.592-112.64 110.592zM112.64 620.544c-20.48 0-36.864 16.384-36.864 36.864V880.64c0 20.48 16.384 36.864 36.864 36.864h223.232c20.48 0 36.864-16.384 36.864-36.864V657.408c0-20.48-16.384-36.864-36.864-36.864H112.64zM913.408 471.04H690.176c-61.44 0-112.64-49.152-112.64-112.64V135.168c0-61.44 49.152-112.64 112.64-112.64h223.232c61.44 0 112.64 49.152 112.64 112.64v223.232c0 61.44-51.2 112.64-112.64 112.64zM690.176 98.304c-20.48 0-36.864 16.384-36.864 36.864v223.232c0 20.48 16.384 36.864 36.864 36.864h223.232c20.48 0 36.864-16.384 36.864-36.864V135.168c0-20.48-16.384-36.864-36.864-36.864H690.176z m223.232 892.928H690.176c-61.44 0-112.64-49.152-112.64-112.64V657.408c0-61.44 49.152-112.64 112.64-112.64h223.232c61.44 0 112.64 49.152 112.64 112.64V880.64c0 61.44-51.2 110.592-112.64 110.592zM690.176 620.544c-20.48 0-36.864 16.384-36.864 36.864V880.64c0 20.48 16.384 36.864 36.864 36.864h223.232c20.48 0 36.864-16.384 36.864-36.864V657.408c0-20.48-16.384-36.864-36.864-36.864H690.176z m0 0" p-id="2379"></path></svg>