<svg t="1713020469975" class="icon" viewBox="0 0 1265 1024" version="1.1" xmlns="http://www.w3.org/2000/svg" p-id="7068" width="200" height="200"><path d="M964.923 21.268A21.268 21.268 0 0 0 945.231 0H315.077a21.268 21.268 0 0 0-20.48 21.268L0 472.615v530.905A20.48 20.48 0 0 0 20.48 1024h1219.348a20.48 20.48 0 0 0 20.48-20.48V463.163z m-611.25 57.501h551.385l266.24 393.846H852.283a236.308 236.308 0 0 1-444.258 0H92.948z m827.865 866.462H78.77V551.385h281.206a315.077 315.077 0 0 0 541.145 0h280.418z" p-id="7069"></path></svg>