<?xml version="1.0" standalone="no"?><!DOCTYPE svg PUBLIC "-//W3C//DTD SVG 1.1//EN" "http://www.w3.org/Graphics/SVG/1.1/DTD/svg11.dtd"><svg t="1730366000841" class="icon" viewBox="0 0 1712 1024" version="1.1" xmlns="http://www.w3.org/2000/svg" p-id="17005" xmlns:xlink="http://www.w3.org/1999/xlink" width="428" height="256"><path d="M1688.501527 764.509091h-537.413818l-76.651054 61.858909H633.269527l-69.818182-61.858909h-540.858181V190.194036h992.209454l119.230837 101.5808h554.440145z" fill="#304bc0" opacity=".1" p-id="17006"></path><path d="M633.269527 830.370909a4.002909 4.002909 0 0 1-2.643782-1.005382l-68.70109-60.862836H22.611782a3.9936 3.9936 0 0 1-3.9936-4.002909V190.175418A3.9936 3.9936 0 0 1 22.611782 186.181818h992.218763a4.012218 4.012218 0 0 1 2.587928 0.930909l118.113745 100.631273h552.96a3.9936 3.9936 0 0 1 4.002909 3.9936v472.762182a4.002909 4.002909 0 0 1-4.002909 3.9936H1152.465455l-75.552582 60.974545a4.012218 4.012218 0 0 1-2.504146 0.930909zM26.614691 760.506182h536.818036a3.965673 3.965673 0 0 1 2.643782 1.005382l68.701091 60.853527h438.244073l75.552582-60.974546a3.984291 3.984291 0 0 1 2.504145-0.884363h533.410909V295.759127h-550.446545a3.965673 3.965673 0 0 1-2.587928-0.930909L1013.3504 194.187636H26.614691z m1077.210764 65.852509l40.457309-33.857164h544.218763v33.857164z m-1081.204364 0v-33.857164h544.218764l40.457309 33.857164z m618.309818-65.266036a4.002909 4.002909 0 0 1 0-8.005819h430.545455a4.002909 4.002909 0 0 1 0 8.005819z m949.294546-500.64291l-83.46531-70.274327h74.100364l83.465309 70.265018z m-111.709091 0l-83.456-70.274327h74.100363l83.465309 70.265018z m-111.709091 0l-83.437382-70.274327h74.100364l83.465309 70.265018z m-111.709091 0l-83.437382-70.274327h74.100364l83.465309 70.265018z m-111.709091 0l-83.428073-70.274327h74.100364l83.474618 70.265018zM56.254836 241.282327v-23.980218h422.939928l31.446109 23.989527z" fill="#304bc0" p-id="17007"></path></svg>