<?xml version="1.0" standalone="no"?><!DOCTYPE svg PUBLIC "-//W3C//DTD SVG 1.1//EN" "http://www.w3.org/Graphics/SVG/1.1/DTD/svg11.dtd"><svg t="1730365958013" class="icon" viewBox="0 0 3835 1024" version="1.1" xmlns="http://www.w3.org/2000/svg" p-id="15739" xmlns:xlink="http://www.w3.org/1999/xlink" width="958.75" height="256"><path d="M3780.784873 764.499782H2577.454545l-171.631709 61.858909H1417.979345l-156.392727-61.858909H50.622836V190.184727h2221.679709l266.984728 101.5808h1241.469672z" fill="#304bc0" p-id="15740"></path><path d="M1417.970036 830.370909a16.663273 16.663273 0 0 1-5.929891-1.005382l-153.832727-60.862836H50.641455c-4.952436 0-8.946036-1.796655-8.946037-3.9936V190.175418c0-2.196945 3.9936-3.9936 8.946037-3.9936h2221.689018a16.858764 16.858764 0 0 1 5.799563 0.930909l264.480582 100.631273h1238.164946c4.952436 0 8.964655 1.787345 8.964654 3.9936v472.762182c0 2.206255-4.012218 3.9936-8.964654 3.9936H2580.619636L2411.436218 829.44a17.063564 17.063564 0 0 1-5.585454 0.930909zM59.587491 760.552727h1202.027054a16.4864 16.4864 0 0 1 5.929891 1.005382l153.832728 60.853527h981.280581l169.17411-60.974545a16.989091 16.989091 0 0 1 5.585454-0.884364h1194.430836V295.759127h-1232.523636a16.663273 16.663273 0 0 1-5.799564-0.930909L2269.035055 194.187636H59.5968z m2411.985454 65.852509l90.586764-33.857163h1218.56v33.857163z m-2420.959418 0v-33.903709h1218.56l90.586764 33.857164z m1384.494546-65.266036c-4.933818 0-8.946036-1.796655-8.946037-4.002909s4.012218-3.9936 8.946037-3.9936h964.040145c4.952436 0 8.946036 1.796655 8.946037 3.9936s-3.9936 4.002909-8.946037 4.002909zM3560.727273 260.449745l-186.889309-70.274327h165.915927l186.889309 70.265018z m-250.107346 0l-186.889309-70.274327h165.906618l186.889309 70.265018z m-250.088727 0l-186.889309-70.274327h165.915927l186.889309 70.265018z m-250.144582 0l-186.889309-70.274327h165.915927l186.88 70.274327z m-250.088727 0l-186.907927-70.274327h165.934545l186.907927 70.265018zM125.961309 241.282327v-23.980218h947.013818l70.404655 23.989527z" fill="#304bc0" p-id="15741"></path></svg>